G75*
%MOIN*%
%OFA0B0*%
%FSLAX25Y25*%
%IPPOS*%
%LPD*%
%AMOC8*
5,1,8,0,0,1.08239X$1,22.5*
%
%ADD10C,0.00394*%
%ADD11C,0.01142*%
D10*
X0024819Y0035567D02*
X0024819Y0035685D01*
X0024819Y0360409D01*
X0024822Y0360672D01*
X0024832Y0360934D01*
X0024848Y0361196D01*
X0024870Y0361458D01*
X0024898Y0361719D01*
X0024933Y0361979D01*
X0024974Y0362238D01*
X0025021Y0362497D01*
X0025075Y0362754D01*
X0025135Y0363009D01*
X0025201Y0363264D01*
X0025273Y0363516D01*
X0025351Y0363767D01*
X0025435Y0364016D01*
X0025525Y0364262D01*
X0025621Y0364507D01*
X0025723Y0364748D01*
X0025831Y0364988D01*
X0025944Y0365225D01*
X0026064Y0365459D01*
X0026188Y0365690D01*
X0026319Y0365918D01*
X0026455Y0366142D01*
X0026596Y0366364D01*
X0026742Y0366582D01*
X0026894Y0366796D01*
X0027051Y0367006D01*
X0027213Y0367213D01*
X0027380Y0367416D01*
X0027552Y0367614D01*
X0027728Y0367809D01*
X0027909Y0367999D01*
X0028095Y0368185D01*
X0028285Y0368366D01*
X0028480Y0368542D01*
X0028678Y0368714D01*
X0028881Y0368881D01*
X0029088Y0369043D01*
X0029298Y0369200D01*
X0029512Y0369352D01*
X0029730Y0369498D01*
X0029952Y0369639D01*
X0030176Y0369775D01*
X0030404Y0369906D01*
X0030635Y0370030D01*
X0030869Y0370150D01*
X0031106Y0370263D01*
X0031346Y0370371D01*
X0031587Y0370473D01*
X0031832Y0370569D01*
X0032078Y0370659D01*
X0032327Y0370743D01*
X0032578Y0370821D01*
X0032830Y0370893D01*
X0033085Y0370959D01*
X0033340Y0371019D01*
X0033597Y0371073D01*
X0033856Y0371120D01*
X0034115Y0371161D01*
X0034375Y0371196D01*
X0034636Y0371224D01*
X0034898Y0371246D01*
X0035160Y0371262D01*
X0035422Y0371272D01*
X0035685Y0371275D01*
X0035685Y0371276D02*
X0360409Y0371315D01*
X0360672Y0371312D01*
X0360934Y0371302D01*
X0361196Y0371286D01*
X0361458Y0371264D01*
X0361719Y0371236D01*
X0361979Y0371201D01*
X0362238Y0371160D01*
X0362497Y0371113D01*
X0362754Y0371059D01*
X0363009Y0370999D01*
X0363264Y0370933D01*
X0363516Y0370861D01*
X0363767Y0370783D01*
X0364016Y0370699D01*
X0364262Y0370609D01*
X0364507Y0370513D01*
X0364748Y0370411D01*
X0364988Y0370303D01*
X0365225Y0370190D01*
X0365459Y0370070D01*
X0365690Y0369946D01*
X0365918Y0369815D01*
X0366142Y0369679D01*
X0366364Y0369538D01*
X0366582Y0369392D01*
X0366796Y0369240D01*
X0367006Y0369083D01*
X0367213Y0368921D01*
X0367416Y0368754D01*
X0367614Y0368582D01*
X0367809Y0368406D01*
X0367999Y0368225D01*
X0368185Y0368039D01*
X0368366Y0367849D01*
X0368542Y0367654D01*
X0368714Y0367456D01*
X0368881Y0367253D01*
X0369043Y0367046D01*
X0369200Y0366836D01*
X0369352Y0366622D01*
X0369498Y0366404D01*
X0369639Y0366182D01*
X0369775Y0365958D01*
X0369906Y0365730D01*
X0370030Y0365499D01*
X0370150Y0365265D01*
X0370263Y0365028D01*
X0370371Y0364788D01*
X0370473Y0364547D01*
X0370569Y0364302D01*
X0370659Y0364056D01*
X0370743Y0363807D01*
X0370821Y0363556D01*
X0370893Y0363304D01*
X0370959Y0363049D01*
X0371019Y0362794D01*
X0371073Y0362537D01*
X0371120Y0362278D01*
X0371161Y0362019D01*
X0371196Y0361759D01*
X0371224Y0361498D01*
X0371246Y0361236D01*
X0371262Y0360974D01*
X0371272Y0360712D01*
X0371275Y0360449D01*
X0371276Y0360449D02*
X0371276Y0035685D01*
X0371275Y0035685D02*
X0371272Y0035422D01*
X0371262Y0035160D01*
X0371246Y0034898D01*
X0371224Y0034636D01*
X0371196Y0034375D01*
X0371161Y0034115D01*
X0371120Y0033856D01*
X0371073Y0033597D01*
X0371019Y0033340D01*
X0370959Y0033085D01*
X0370893Y0032830D01*
X0370821Y0032578D01*
X0370743Y0032327D01*
X0370659Y0032078D01*
X0370569Y0031832D01*
X0370473Y0031587D01*
X0370371Y0031346D01*
X0370263Y0031106D01*
X0370150Y0030869D01*
X0370030Y0030635D01*
X0369906Y0030404D01*
X0369775Y0030176D01*
X0369639Y0029952D01*
X0369498Y0029730D01*
X0369352Y0029512D01*
X0369200Y0029298D01*
X0369043Y0029088D01*
X0368881Y0028881D01*
X0368714Y0028678D01*
X0368542Y0028480D01*
X0368366Y0028285D01*
X0368185Y0028095D01*
X0367999Y0027909D01*
X0367809Y0027728D01*
X0367614Y0027552D01*
X0367416Y0027380D01*
X0367213Y0027213D01*
X0367006Y0027051D01*
X0366796Y0026894D01*
X0366582Y0026742D01*
X0366364Y0026596D01*
X0366142Y0026455D01*
X0365918Y0026319D01*
X0365690Y0026188D01*
X0365459Y0026064D01*
X0365225Y0025944D01*
X0364988Y0025831D01*
X0364748Y0025723D01*
X0364507Y0025621D01*
X0364262Y0025525D01*
X0364016Y0025435D01*
X0363767Y0025351D01*
X0363516Y0025273D01*
X0363264Y0025201D01*
X0363009Y0025135D01*
X0362754Y0025075D01*
X0362497Y0025021D01*
X0362238Y0024974D01*
X0361979Y0024933D01*
X0361719Y0024898D01*
X0361458Y0024870D01*
X0361196Y0024848D01*
X0360934Y0024832D01*
X0360672Y0024822D01*
X0360409Y0024819D01*
X0035685Y0024819D01*
X0035422Y0024822D01*
X0035160Y0024832D01*
X0034898Y0024848D01*
X0034636Y0024870D01*
X0034375Y0024898D01*
X0034115Y0024933D01*
X0033856Y0024974D01*
X0033597Y0025021D01*
X0033340Y0025075D01*
X0033085Y0025135D01*
X0032830Y0025201D01*
X0032578Y0025273D01*
X0032327Y0025351D01*
X0032078Y0025435D01*
X0031832Y0025525D01*
X0031587Y0025621D01*
X0031346Y0025723D01*
X0031106Y0025831D01*
X0030869Y0025944D01*
X0030635Y0026064D01*
X0030404Y0026188D01*
X0030176Y0026319D01*
X0029952Y0026455D01*
X0029730Y0026596D01*
X0029512Y0026742D01*
X0029298Y0026894D01*
X0029088Y0027051D01*
X0028881Y0027213D01*
X0028678Y0027380D01*
X0028480Y0027552D01*
X0028285Y0027728D01*
X0028095Y0027909D01*
X0027909Y0028095D01*
X0027728Y0028285D01*
X0027552Y0028480D01*
X0027380Y0028678D01*
X0027213Y0028881D01*
X0027051Y0029088D01*
X0026894Y0029298D01*
X0026742Y0029512D01*
X0026596Y0029730D01*
X0026455Y0029952D01*
X0026319Y0030176D01*
X0026188Y0030404D01*
X0026064Y0030635D01*
X0025944Y0030869D01*
X0025831Y0031106D01*
X0025723Y0031346D01*
X0025621Y0031587D01*
X0025525Y0031832D01*
X0025435Y0032078D01*
X0025351Y0032327D01*
X0025273Y0032578D01*
X0025201Y0032830D01*
X0025135Y0033085D01*
X0025075Y0033340D01*
X0025021Y0033597D01*
X0024974Y0033856D01*
X0024933Y0034115D01*
X0024898Y0034375D01*
X0024870Y0034636D01*
X0024848Y0034898D01*
X0024832Y0035160D01*
X0024822Y0035422D01*
X0024819Y0035685D01*
X0030724Y0198047D02*
X0030728Y0198337D01*
X0030738Y0198627D01*
X0030756Y0198916D01*
X0030781Y0199205D01*
X0030813Y0199493D01*
X0030852Y0199780D01*
X0030898Y0200066D01*
X0030951Y0200351D01*
X0031011Y0200635D01*
X0031078Y0200917D01*
X0031152Y0201197D01*
X0031233Y0201476D01*
X0031320Y0201752D01*
X0031414Y0202026D01*
X0031515Y0202298D01*
X0031623Y0202567D01*
X0031737Y0202833D01*
X0031858Y0203097D01*
X0031985Y0203357D01*
X0032119Y0203615D01*
X0032258Y0203869D01*
X0032404Y0204119D01*
X0032556Y0204366D01*
X0032715Y0204609D01*
X0032879Y0204848D01*
X0033048Y0205083D01*
X0033224Y0205314D01*
X0033405Y0205540D01*
X0033592Y0205762D01*
X0033784Y0205979D01*
X0033981Y0206191D01*
X0034183Y0206399D01*
X0034391Y0206601D01*
X0034603Y0206798D01*
X0034820Y0206990D01*
X0035042Y0207177D01*
X0035268Y0207358D01*
X0035499Y0207534D01*
X0035734Y0207703D01*
X0035973Y0207867D01*
X0036216Y0208026D01*
X0036463Y0208178D01*
X0036713Y0208324D01*
X0036967Y0208463D01*
X0037225Y0208597D01*
X0037485Y0208724D01*
X0037749Y0208845D01*
X0038015Y0208959D01*
X0038284Y0209067D01*
X0038556Y0209168D01*
X0038830Y0209262D01*
X0039106Y0209349D01*
X0039385Y0209430D01*
X0039665Y0209504D01*
X0039947Y0209571D01*
X0040231Y0209631D01*
X0040516Y0209684D01*
X0040802Y0209730D01*
X0041089Y0209769D01*
X0041377Y0209801D01*
X0041666Y0209826D01*
X0041955Y0209844D01*
X0042245Y0209854D01*
X0042535Y0209858D01*
X0042825Y0209854D01*
X0043115Y0209844D01*
X0043404Y0209826D01*
X0043693Y0209801D01*
X0043981Y0209769D01*
X0044268Y0209730D01*
X0044554Y0209684D01*
X0044839Y0209631D01*
X0045123Y0209571D01*
X0045405Y0209504D01*
X0045685Y0209430D01*
X0045964Y0209349D01*
X0046240Y0209262D01*
X0046514Y0209168D01*
X0046786Y0209067D01*
X0047055Y0208959D01*
X0047321Y0208845D01*
X0047585Y0208724D01*
X0047845Y0208597D01*
X0048103Y0208463D01*
X0048357Y0208324D01*
X0048607Y0208178D01*
X0048854Y0208026D01*
X0049097Y0207867D01*
X0049336Y0207703D01*
X0049571Y0207534D01*
X0049802Y0207358D01*
X0050028Y0207177D01*
X0050250Y0206990D01*
X0050467Y0206798D01*
X0050679Y0206601D01*
X0050887Y0206399D01*
X0051089Y0206191D01*
X0051286Y0205979D01*
X0051478Y0205762D01*
X0051665Y0205540D01*
X0051846Y0205314D01*
X0052022Y0205083D01*
X0052191Y0204848D01*
X0052355Y0204609D01*
X0052514Y0204366D01*
X0052666Y0204119D01*
X0052812Y0203869D01*
X0052951Y0203615D01*
X0053085Y0203357D01*
X0053212Y0203097D01*
X0053333Y0202833D01*
X0053447Y0202567D01*
X0053555Y0202298D01*
X0053656Y0202026D01*
X0053750Y0201752D01*
X0053837Y0201476D01*
X0053918Y0201197D01*
X0053992Y0200917D01*
X0054059Y0200635D01*
X0054119Y0200351D01*
X0054172Y0200066D01*
X0054218Y0199780D01*
X0054257Y0199493D01*
X0054289Y0199205D01*
X0054314Y0198916D01*
X0054332Y0198627D01*
X0054342Y0198337D01*
X0054346Y0198047D01*
X0054342Y0197757D01*
X0054332Y0197467D01*
X0054314Y0197178D01*
X0054289Y0196889D01*
X0054257Y0196601D01*
X0054218Y0196314D01*
X0054172Y0196028D01*
X0054119Y0195743D01*
X0054059Y0195459D01*
X0053992Y0195177D01*
X0053918Y0194897D01*
X0053837Y0194618D01*
X0053750Y0194342D01*
X0053656Y0194068D01*
X0053555Y0193796D01*
X0053447Y0193527D01*
X0053333Y0193261D01*
X0053212Y0192997D01*
X0053085Y0192737D01*
X0052951Y0192479D01*
X0052812Y0192225D01*
X0052666Y0191975D01*
X0052514Y0191728D01*
X0052355Y0191485D01*
X0052191Y0191246D01*
X0052022Y0191011D01*
X0051846Y0190780D01*
X0051665Y0190554D01*
X0051478Y0190332D01*
X0051286Y0190115D01*
X0051089Y0189903D01*
X0050887Y0189695D01*
X0050679Y0189493D01*
X0050467Y0189296D01*
X0050250Y0189104D01*
X0050028Y0188917D01*
X0049802Y0188736D01*
X0049571Y0188560D01*
X0049336Y0188391D01*
X0049097Y0188227D01*
X0048854Y0188068D01*
X0048607Y0187916D01*
X0048357Y0187770D01*
X0048103Y0187631D01*
X0047845Y0187497D01*
X0047585Y0187370D01*
X0047321Y0187249D01*
X0047055Y0187135D01*
X0046786Y0187027D01*
X0046514Y0186926D01*
X0046240Y0186832D01*
X0045964Y0186745D01*
X0045685Y0186664D01*
X0045405Y0186590D01*
X0045123Y0186523D01*
X0044839Y0186463D01*
X0044554Y0186410D01*
X0044268Y0186364D01*
X0043981Y0186325D01*
X0043693Y0186293D01*
X0043404Y0186268D01*
X0043115Y0186250D01*
X0042825Y0186240D01*
X0042535Y0186236D01*
X0042245Y0186240D01*
X0041955Y0186250D01*
X0041666Y0186268D01*
X0041377Y0186293D01*
X0041089Y0186325D01*
X0040802Y0186364D01*
X0040516Y0186410D01*
X0040231Y0186463D01*
X0039947Y0186523D01*
X0039665Y0186590D01*
X0039385Y0186664D01*
X0039106Y0186745D01*
X0038830Y0186832D01*
X0038556Y0186926D01*
X0038284Y0187027D01*
X0038015Y0187135D01*
X0037749Y0187249D01*
X0037485Y0187370D01*
X0037225Y0187497D01*
X0036967Y0187631D01*
X0036713Y0187770D01*
X0036463Y0187916D01*
X0036216Y0188068D01*
X0035973Y0188227D01*
X0035734Y0188391D01*
X0035499Y0188560D01*
X0035268Y0188736D01*
X0035042Y0188917D01*
X0034820Y0189104D01*
X0034603Y0189296D01*
X0034391Y0189493D01*
X0034183Y0189695D01*
X0033981Y0189903D01*
X0033784Y0190115D01*
X0033592Y0190332D01*
X0033405Y0190554D01*
X0033224Y0190780D01*
X0033048Y0191011D01*
X0032879Y0191246D01*
X0032715Y0191485D01*
X0032556Y0191728D01*
X0032404Y0191975D01*
X0032258Y0192225D01*
X0032119Y0192479D01*
X0031985Y0192737D01*
X0031858Y0192997D01*
X0031737Y0193261D01*
X0031623Y0193527D01*
X0031515Y0193796D01*
X0031414Y0194068D01*
X0031320Y0194342D01*
X0031233Y0194618D01*
X0031152Y0194897D01*
X0031078Y0195177D01*
X0031011Y0195459D01*
X0030951Y0195743D01*
X0030898Y0196028D01*
X0030852Y0196314D01*
X0030813Y0196601D01*
X0030781Y0196889D01*
X0030756Y0197178D01*
X0030738Y0197467D01*
X0030728Y0197757D01*
X0030724Y0198047D01*
X0186236Y0042535D02*
X0186240Y0042825D01*
X0186250Y0043115D01*
X0186268Y0043404D01*
X0186293Y0043693D01*
X0186325Y0043981D01*
X0186364Y0044268D01*
X0186410Y0044554D01*
X0186463Y0044839D01*
X0186523Y0045123D01*
X0186590Y0045405D01*
X0186664Y0045685D01*
X0186745Y0045964D01*
X0186832Y0046240D01*
X0186926Y0046514D01*
X0187027Y0046786D01*
X0187135Y0047055D01*
X0187249Y0047321D01*
X0187370Y0047585D01*
X0187497Y0047845D01*
X0187631Y0048103D01*
X0187770Y0048357D01*
X0187916Y0048607D01*
X0188068Y0048854D01*
X0188227Y0049097D01*
X0188391Y0049336D01*
X0188560Y0049571D01*
X0188736Y0049802D01*
X0188917Y0050028D01*
X0189104Y0050250D01*
X0189296Y0050467D01*
X0189493Y0050679D01*
X0189695Y0050887D01*
X0189903Y0051089D01*
X0190115Y0051286D01*
X0190332Y0051478D01*
X0190554Y0051665D01*
X0190780Y0051846D01*
X0191011Y0052022D01*
X0191246Y0052191D01*
X0191485Y0052355D01*
X0191728Y0052514D01*
X0191975Y0052666D01*
X0192225Y0052812D01*
X0192479Y0052951D01*
X0192737Y0053085D01*
X0192997Y0053212D01*
X0193261Y0053333D01*
X0193527Y0053447D01*
X0193796Y0053555D01*
X0194068Y0053656D01*
X0194342Y0053750D01*
X0194618Y0053837D01*
X0194897Y0053918D01*
X0195177Y0053992D01*
X0195459Y0054059D01*
X0195743Y0054119D01*
X0196028Y0054172D01*
X0196314Y0054218D01*
X0196601Y0054257D01*
X0196889Y0054289D01*
X0197178Y0054314D01*
X0197467Y0054332D01*
X0197757Y0054342D01*
X0198047Y0054346D01*
X0198337Y0054342D01*
X0198627Y0054332D01*
X0198916Y0054314D01*
X0199205Y0054289D01*
X0199493Y0054257D01*
X0199780Y0054218D01*
X0200066Y0054172D01*
X0200351Y0054119D01*
X0200635Y0054059D01*
X0200917Y0053992D01*
X0201197Y0053918D01*
X0201476Y0053837D01*
X0201752Y0053750D01*
X0202026Y0053656D01*
X0202298Y0053555D01*
X0202567Y0053447D01*
X0202833Y0053333D01*
X0203097Y0053212D01*
X0203357Y0053085D01*
X0203615Y0052951D01*
X0203869Y0052812D01*
X0204119Y0052666D01*
X0204366Y0052514D01*
X0204609Y0052355D01*
X0204848Y0052191D01*
X0205083Y0052022D01*
X0205314Y0051846D01*
X0205540Y0051665D01*
X0205762Y0051478D01*
X0205979Y0051286D01*
X0206191Y0051089D01*
X0206399Y0050887D01*
X0206601Y0050679D01*
X0206798Y0050467D01*
X0206990Y0050250D01*
X0207177Y0050028D01*
X0207358Y0049802D01*
X0207534Y0049571D01*
X0207703Y0049336D01*
X0207867Y0049097D01*
X0208026Y0048854D01*
X0208178Y0048607D01*
X0208324Y0048357D01*
X0208463Y0048103D01*
X0208597Y0047845D01*
X0208724Y0047585D01*
X0208845Y0047321D01*
X0208959Y0047055D01*
X0209067Y0046786D01*
X0209168Y0046514D01*
X0209262Y0046240D01*
X0209349Y0045964D01*
X0209430Y0045685D01*
X0209504Y0045405D01*
X0209571Y0045123D01*
X0209631Y0044839D01*
X0209684Y0044554D01*
X0209730Y0044268D01*
X0209769Y0043981D01*
X0209801Y0043693D01*
X0209826Y0043404D01*
X0209844Y0043115D01*
X0209854Y0042825D01*
X0209858Y0042535D01*
X0209854Y0042245D01*
X0209844Y0041955D01*
X0209826Y0041666D01*
X0209801Y0041377D01*
X0209769Y0041089D01*
X0209730Y0040802D01*
X0209684Y0040516D01*
X0209631Y0040231D01*
X0209571Y0039947D01*
X0209504Y0039665D01*
X0209430Y0039385D01*
X0209349Y0039106D01*
X0209262Y0038830D01*
X0209168Y0038556D01*
X0209067Y0038284D01*
X0208959Y0038015D01*
X0208845Y0037749D01*
X0208724Y0037485D01*
X0208597Y0037225D01*
X0208463Y0036967D01*
X0208324Y0036713D01*
X0208178Y0036463D01*
X0208026Y0036216D01*
X0207867Y0035973D01*
X0207703Y0035734D01*
X0207534Y0035499D01*
X0207358Y0035268D01*
X0207177Y0035042D01*
X0206990Y0034820D01*
X0206798Y0034603D01*
X0206601Y0034391D01*
X0206399Y0034183D01*
X0206191Y0033981D01*
X0205979Y0033784D01*
X0205762Y0033592D01*
X0205540Y0033405D01*
X0205314Y0033224D01*
X0205083Y0033048D01*
X0204848Y0032879D01*
X0204609Y0032715D01*
X0204366Y0032556D01*
X0204119Y0032404D01*
X0203869Y0032258D01*
X0203615Y0032119D01*
X0203357Y0031985D01*
X0203097Y0031858D01*
X0202833Y0031737D01*
X0202567Y0031623D01*
X0202298Y0031515D01*
X0202026Y0031414D01*
X0201752Y0031320D01*
X0201476Y0031233D01*
X0201197Y0031152D01*
X0200917Y0031078D01*
X0200635Y0031011D01*
X0200351Y0030951D01*
X0200066Y0030898D01*
X0199780Y0030852D01*
X0199493Y0030813D01*
X0199205Y0030781D01*
X0198916Y0030756D01*
X0198627Y0030738D01*
X0198337Y0030728D01*
X0198047Y0030724D01*
X0197757Y0030728D01*
X0197467Y0030738D01*
X0197178Y0030756D01*
X0196889Y0030781D01*
X0196601Y0030813D01*
X0196314Y0030852D01*
X0196028Y0030898D01*
X0195743Y0030951D01*
X0195459Y0031011D01*
X0195177Y0031078D01*
X0194897Y0031152D01*
X0194618Y0031233D01*
X0194342Y0031320D01*
X0194068Y0031414D01*
X0193796Y0031515D01*
X0193527Y0031623D01*
X0193261Y0031737D01*
X0192997Y0031858D01*
X0192737Y0031985D01*
X0192479Y0032119D01*
X0192225Y0032258D01*
X0191975Y0032404D01*
X0191728Y0032556D01*
X0191485Y0032715D01*
X0191246Y0032879D01*
X0191011Y0033048D01*
X0190780Y0033224D01*
X0190554Y0033405D01*
X0190332Y0033592D01*
X0190115Y0033784D01*
X0189903Y0033981D01*
X0189695Y0034183D01*
X0189493Y0034391D01*
X0189296Y0034603D01*
X0189104Y0034820D01*
X0188917Y0035042D01*
X0188736Y0035268D01*
X0188560Y0035499D01*
X0188391Y0035734D01*
X0188227Y0035973D01*
X0188068Y0036216D01*
X0187916Y0036463D01*
X0187770Y0036713D01*
X0187631Y0036967D01*
X0187497Y0037225D01*
X0187370Y0037485D01*
X0187249Y0037749D01*
X0187135Y0038015D01*
X0187027Y0038284D01*
X0186926Y0038556D01*
X0186832Y0038830D01*
X0186745Y0039106D01*
X0186664Y0039385D01*
X0186590Y0039665D01*
X0186523Y0039947D01*
X0186463Y0040231D01*
X0186410Y0040516D01*
X0186364Y0040802D01*
X0186325Y0041089D01*
X0186293Y0041377D01*
X0186268Y0041666D01*
X0186250Y0041955D01*
X0186240Y0042245D01*
X0186236Y0042535D01*
X0341748Y0198047D02*
X0341752Y0198337D01*
X0341762Y0198627D01*
X0341780Y0198916D01*
X0341805Y0199205D01*
X0341837Y0199493D01*
X0341876Y0199780D01*
X0341922Y0200066D01*
X0341975Y0200351D01*
X0342035Y0200635D01*
X0342102Y0200917D01*
X0342176Y0201197D01*
X0342257Y0201476D01*
X0342344Y0201752D01*
X0342438Y0202026D01*
X0342539Y0202298D01*
X0342647Y0202567D01*
X0342761Y0202833D01*
X0342882Y0203097D01*
X0343009Y0203357D01*
X0343143Y0203615D01*
X0343282Y0203869D01*
X0343428Y0204119D01*
X0343580Y0204366D01*
X0343739Y0204609D01*
X0343903Y0204848D01*
X0344072Y0205083D01*
X0344248Y0205314D01*
X0344429Y0205540D01*
X0344616Y0205762D01*
X0344808Y0205979D01*
X0345005Y0206191D01*
X0345207Y0206399D01*
X0345415Y0206601D01*
X0345627Y0206798D01*
X0345844Y0206990D01*
X0346066Y0207177D01*
X0346292Y0207358D01*
X0346523Y0207534D01*
X0346758Y0207703D01*
X0346997Y0207867D01*
X0347240Y0208026D01*
X0347487Y0208178D01*
X0347737Y0208324D01*
X0347991Y0208463D01*
X0348249Y0208597D01*
X0348509Y0208724D01*
X0348773Y0208845D01*
X0349039Y0208959D01*
X0349308Y0209067D01*
X0349580Y0209168D01*
X0349854Y0209262D01*
X0350130Y0209349D01*
X0350409Y0209430D01*
X0350689Y0209504D01*
X0350971Y0209571D01*
X0351255Y0209631D01*
X0351540Y0209684D01*
X0351826Y0209730D01*
X0352113Y0209769D01*
X0352401Y0209801D01*
X0352690Y0209826D01*
X0352979Y0209844D01*
X0353269Y0209854D01*
X0353559Y0209858D01*
X0353849Y0209854D01*
X0354139Y0209844D01*
X0354428Y0209826D01*
X0354717Y0209801D01*
X0355005Y0209769D01*
X0355292Y0209730D01*
X0355578Y0209684D01*
X0355863Y0209631D01*
X0356147Y0209571D01*
X0356429Y0209504D01*
X0356709Y0209430D01*
X0356988Y0209349D01*
X0357264Y0209262D01*
X0357538Y0209168D01*
X0357810Y0209067D01*
X0358079Y0208959D01*
X0358345Y0208845D01*
X0358609Y0208724D01*
X0358869Y0208597D01*
X0359127Y0208463D01*
X0359381Y0208324D01*
X0359631Y0208178D01*
X0359878Y0208026D01*
X0360121Y0207867D01*
X0360360Y0207703D01*
X0360595Y0207534D01*
X0360826Y0207358D01*
X0361052Y0207177D01*
X0361274Y0206990D01*
X0361491Y0206798D01*
X0361703Y0206601D01*
X0361911Y0206399D01*
X0362113Y0206191D01*
X0362310Y0205979D01*
X0362502Y0205762D01*
X0362689Y0205540D01*
X0362870Y0205314D01*
X0363046Y0205083D01*
X0363215Y0204848D01*
X0363379Y0204609D01*
X0363538Y0204366D01*
X0363690Y0204119D01*
X0363836Y0203869D01*
X0363975Y0203615D01*
X0364109Y0203357D01*
X0364236Y0203097D01*
X0364357Y0202833D01*
X0364471Y0202567D01*
X0364579Y0202298D01*
X0364680Y0202026D01*
X0364774Y0201752D01*
X0364861Y0201476D01*
X0364942Y0201197D01*
X0365016Y0200917D01*
X0365083Y0200635D01*
X0365143Y0200351D01*
X0365196Y0200066D01*
X0365242Y0199780D01*
X0365281Y0199493D01*
X0365313Y0199205D01*
X0365338Y0198916D01*
X0365356Y0198627D01*
X0365366Y0198337D01*
X0365370Y0198047D01*
X0365366Y0197757D01*
X0365356Y0197467D01*
X0365338Y0197178D01*
X0365313Y0196889D01*
X0365281Y0196601D01*
X0365242Y0196314D01*
X0365196Y0196028D01*
X0365143Y0195743D01*
X0365083Y0195459D01*
X0365016Y0195177D01*
X0364942Y0194897D01*
X0364861Y0194618D01*
X0364774Y0194342D01*
X0364680Y0194068D01*
X0364579Y0193796D01*
X0364471Y0193527D01*
X0364357Y0193261D01*
X0364236Y0192997D01*
X0364109Y0192737D01*
X0363975Y0192479D01*
X0363836Y0192225D01*
X0363690Y0191975D01*
X0363538Y0191728D01*
X0363379Y0191485D01*
X0363215Y0191246D01*
X0363046Y0191011D01*
X0362870Y0190780D01*
X0362689Y0190554D01*
X0362502Y0190332D01*
X0362310Y0190115D01*
X0362113Y0189903D01*
X0361911Y0189695D01*
X0361703Y0189493D01*
X0361491Y0189296D01*
X0361274Y0189104D01*
X0361052Y0188917D01*
X0360826Y0188736D01*
X0360595Y0188560D01*
X0360360Y0188391D01*
X0360121Y0188227D01*
X0359878Y0188068D01*
X0359631Y0187916D01*
X0359381Y0187770D01*
X0359127Y0187631D01*
X0358869Y0187497D01*
X0358609Y0187370D01*
X0358345Y0187249D01*
X0358079Y0187135D01*
X0357810Y0187027D01*
X0357538Y0186926D01*
X0357264Y0186832D01*
X0356988Y0186745D01*
X0356709Y0186664D01*
X0356429Y0186590D01*
X0356147Y0186523D01*
X0355863Y0186463D01*
X0355578Y0186410D01*
X0355292Y0186364D01*
X0355005Y0186325D01*
X0354717Y0186293D01*
X0354428Y0186268D01*
X0354139Y0186250D01*
X0353849Y0186240D01*
X0353559Y0186236D01*
X0353269Y0186240D01*
X0352979Y0186250D01*
X0352690Y0186268D01*
X0352401Y0186293D01*
X0352113Y0186325D01*
X0351826Y0186364D01*
X0351540Y0186410D01*
X0351255Y0186463D01*
X0350971Y0186523D01*
X0350689Y0186590D01*
X0350409Y0186664D01*
X0350130Y0186745D01*
X0349854Y0186832D01*
X0349580Y0186926D01*
X0349308Y0187027D01*
X0349039Y0187135D01*
X0348773Y0187249D01*
X0348509Y0187370D01*
X0348249Y0187497D01*
X0347991Y0187631D01*
X0347737Y0187770D01*
X0347487Y0187916D01*
X0347240Y0188068D01*
X0346997Y0188227D01*
X0346758Y0188391D01*
X0346523Y0188560D01*
X0346292Y0188736D01*
X0346066Y0188917D01*
X0345844Y0189104D01*
X0345627Y0189296D01*
X0345415Y0189493D01*
X0345207Y0189695D01*
X0345005Y0189903D01*
X0344808Y0190115D01*
X0344616Y0190332D01*
X0344429Y0190554D01*
X0344248Y0190780D01*
X0344072Y0191011D01*
X0343903Y0191246D01*
X0343739Y0191485D01*
X0343580Y0191728D01*
X0343428Y0191975D01*
X0343282Y0192225D01*
X0343143Y0192479D01*
X0343009Y0192737D01*
X0342882Y0192997D01*
X0342761Y0193261D01*
X0342647Y0193527D01*
X0342539Y0193796D01*
X0342438Y0194068D01*
X0342344Y0194342D01*
X0342257Y0194618D01*
X0342176Y0194897D01*
X0342102Y0195177D01*
X0342035Y0195459D01*
X0341975Y0195743D01*
X0341922Y0196028D01*
X0341876Y0196314D01*
X0341837Y0196601D01*
X0341805Y0196889D01*
X0341780Y0197178D01*
X0341762Y0197467D01*
X0341752Y0197757D01*
X0341748Y0198047D01*
X0186236Y0353559D02*
X0186240Y0353849D01*
X0186250Y0354139D01*
X0186268Y0354428D01*
X0186293Y0354717D01*
X0186325Y0355005D01*
X0186364Y0355292D01*
X0186410Y0355578D01*
X0186463Y0355863D01*
X0186523Y0356147D01*
X0186590Y0356429D01*
X0186664Y0356709D01*
X0186745Y0356988D01*
X0186832Y0357264D01*
X0186926Y0357538D01*
X0187027Y0357810D01*
X0187135Y0358079D01*
X0187249Y0358345D01*
X0187370Y0358609D01*
X0187497Y0358869D01*
X0187631Y0359127D01*
X0187770Y0359381D01*
X0187916Y0359631D01*
X0188068Y0359878D01*
X0188227Y0360121D01*
X0188391Y0360360D01*
X0188560Y0360595D01*
X0188736Y0360826D01*
X0188917Y0361052D01*
X0189104Y0361274D01*
X0189296Y0361491D01*
X0189493Y0361703D01*
X0189695Y0361911D01*
X0189903Y0362113D01*
X0190115Y0362310D01*
X0190332Y0362502D01*
X0190554Y0362689D01*
X0190780Y0362870D01*
X0191011Y0363046D01*
X0191246Y0363215D01*
X0191485Y0363379D01*
X0191728Y0363538D01*
X0191975Y0363690D01*
X0192225Y0363836D01*
X0192479Y0363975D01*
X0192737Y0364109D01*
X0192997Y0364236D01*
X0193261Y0364357D01*
X0193527Y0364471D01*
X0193796Y0364579D01*
X0194068Y0364680D01*
X0194342Y0364774D01*
X0194618Y0364861D01*
X0194897Y0364942D01*
X0195177Y0365016D01*
X0195459Y0365083D01*
X0195743Y0365143D01*
X0196028Y0365196D01*
X0196314Y0365242D01*
X0196601Y0365281D01*
X0196889Y0365313D01*
X0197178Y0365338D01*
X0197467Y0365356D01*
X0197757Y0365366D01*
X0198047Y0365370D01*
X0198337Y0365366D01*
X0198627Y0365356D01*
X0198916Y0365338D01*
X0199205Y0365313D01*
X0199493Y0365281D01*
X0199780Y0365242D01*
X0200066Y0365196D01*
X0200351Y0365143D01*
X0200635Y0365083D01*
X0200917Y0365016D01*
X0201197Y0364942D01*
X0201476Y0364861D01*
X0201752Y0364774D01*
X0202026Y0364680D01*
X0202298Y0364579D01*
X0202567Y0364471D01*
X0202833Y0364357D01*
X0203097Y0364236D01*
X0203357Y0364109D01*
X0203615Y0363975D01*
X0203869Y0363836D01*
X0204119Y0363690D01*
X0204366Y0363538D01*
X0204609Y0363379D01*
X0204848Y0363215D01*
X0205083Y0363046D01*
X0205314Y0362870D01*
X0205540Y0362689D01*
X0205762Y0362502D01*
X0205979Y0362310D01*
X0206191Y0362113D01*
X0206399Y0361911D01*
X0206601Y0361703D01*
X0206798Y0361491D01*
X0206990Y0361274D01*
X0207177Y0361052D01*
X0207358Y0360826D01*
X0207534Y0360595D01*
X0207703Y0360360D01*
X0207867Y0360121D01*
X0208026Y0359878D01*
X0208178Y0359631D01*
X0208324Y0359381D01*
X0208463Y0359127D01*
X0208597Y0358869D01*
X0208724Y0358609D01*
X0208845Y0358345D01*
X0208959Y0358079D01*
X0209067Y0357810D01*
X0209168Y0357538D01*
X0209262Y0357264D01*
X0209349Y0356988D01*
X0209430Y0356709D01*
X0209504Y0356429D01*
X0209571Y0356147D01*
X0209631Y0355863D01*
X0209684Y0355578D01*
X0209730Y0355292D01*
X0209769Y0355005D01*
X0209801Y0354717D01*
X0209826Y0354428D01*
X0209844Y0354139D01*
X0209854Y0353849D01*
X0209858Y0353559D01*
X0209854Y0353269D01*
X0209844Y0352979D01*
X0209826Y0352690D01*
X0209801Y0352401D01*
X0209769Y0352113D01*
X0209730Y0351826D01*
X0209684Y0351540D01*
X0209631Y0351255D01*
X0209571Y0350971D01*
X0209504Y0350689D01*
X0209430Y0350409D01*
X0209349Y0350130D01*
X0209262Y0349854D01*
X0209168Y0349580D01*
X0209067Y0349308D01*
X0208959Y0349039D01*
X0208845Y0348773D01*
X0208724Y0348509D01*
X0208597Y0348249D01*
X0208463Y0347991D01*
X0208324Y0347737D01*
X0208178Y0347487D01*
X0208026Y0347240D01*
X0207867Y0346997D01*
X0207703Y0346758D01*
X0207534Y0346523D01*
X0207358Y0346292D01*
X0207177Y0346066D01*
X0206990Y0345844D01*
X0206798Y0345627D01*
X0206601Y0345415D01*
X0206399Y0345207D01*
X0206191Y0345005D01*
X0205979Y0344808D01*
X0205762Y0344616D01*
X0205540Y0344429D01*
X0205314Y0344248D01*
X0205083Y0344072D01*
X0204848Y0343903D01*
X0204609Y0343739D01*
X0204366Y0343580D01*
X0204119Y0343428D01*
X0203869Y0343282D01*
X0203615Y0343143D01*
X0203357Y0343009D01*
X0203097Y0342882D01*
X0202833Y0342761D01*
X0202567Y0342647D01*
X0202298Y0342539D01*
X0202026Y0342438D01*
X0201752Y0342344D01*
X0201476Y0342257D01*
X0201197Y0342176D01*
X0200917Y0342102D01*
X0200635Y0342035D01*
X0200351Y0341975D01*
X0200066Y0341922D01*
X0199780Y0341876D01*
X0199493Y0341837D01*
X0199205Y0341805D01*
X0198916Y0341780D01*
X0198627Y0341762D01*
X0198337Y0341752D01*
X0198047Y0341748D01*
X0197757Y0341752D01*
X0197467Y0341762D01*
X0197178Y0341780D01*
X0196889Y0341805D01*
X0196601Y0341837D01*
X0196314Y0341876D01*
X0196028Y0341922D01*
X0195743Y0341975D01*
X0195459Y0342035D01*
X0195177Y0342102D01*
X0194897Y0342176D01*
X0194618Y0342257D01*
X0194342Y0342344D01*
X0194068Y0342438D01*
X0193796Y0342539D01*
X0193527Y0342647D01*
X0193261Y0342761D01*
X0192997Y0342882D01*
X0192737Y0343009D01*
X0192479Y0343143D01*
X0192225Y0343282D01*
X0191975Y0343428D01*
X0191728Y0343580D01*
X0191485Y0343739D01*
X0191246Y0343903D01*
X0191011Y0344072D01*
X0190780Y0344248D01*
X0190554Y0344429D01*
X0190332Y0344616D01*
X0190115Y0344808D01*
X0189903Y0345005D01*
X0189695Y0345207D01*
X0189493Y0345415D01*
X0189296Y0345627D01*
X0189104Y0345844D01*
X0188917Y0346066D01*
X0188736Y0346292D01*
X0188560Y0346523D01*
X0188391Y0346758D01*
X0188227Y0346997D01*
X0188068Y0347240D01*
X0187916Y0347487D01*
X0187770Y0347737D01*
X0187631Y0347991D01*
X0187497Y0348249D01*
X0187370Y0348509D01*
X0187249Y0348773D01*
X0187135Y0349039D01*
X0187027Y0349308D01*
X0186926Y0349580D01*
X0186832Y0349854D01*
X0186745Y0350130D01*
X0186664Y0350409D01*
X0186590Y0350689D01*
X0186523Y0350971D01*
X0186463Y0351255D01*
X0186410Y0351540D01*
X0186364Y0351826D01*
X0186325Y0352113D01*
X0186293Y0352401D01*
X0186268Y0352690D01*
X0186250Y0352979D01*
X0186240Y0353269D01*
X0186236Y0353559D01*
D11*
X0192535Y0203559D03*
X0192535Y0201984D03*
X0192535Y0200409D03*
X0192535Y0198835D03*
X0192535Y0197260D03*
X0192535Y0195685D03*
X0192535Y0194110D03*
X0192535Y0192535D03*
X0194110Y0192535D03*
X0195685Y0192535D03*
X0197260Y0192535D03*
X0198835Y0192535D03*
X0200409Y0192535D03*
X0200409Y0194110D03*
X0198835Y0194110D03*
X0198835Y0195685D03*
X0200409Y0195685D03*
X0200409Y0197260D03*
X0198835Y0197260D03*
X0198835Y0198835D03*
X0200409Y0198835D03*
X0200409Y0200409D03*
X0198835Y0200409D03*
X0197260Y0200409D03*
X0197260Y0198835D03*
X0195685Y0198835D03*
X0195685Y0200409D03*
X0194110Y0200409D03*
X0194110Y0198835D03*
X0194110Y0197260D03*
X0194110Y0195685D03*
X0194110Y0194110D03*
X0195685Y0194110D03*
X0197260Y0194110D03*
X0197260Y0195685D03*
X0197260Y0197260D03*
X0195685Y0197260D03*
X0195685Y0195685D03*
X0195685Y0201984D03*
X0194110Y0201984D03*
X0194110Y0203559D03*
X0195685Y0203559D03*
X0197260Y0203559D03*
X0198835Y0203559D03*
X0200409Y0203559D03*
X0200409Y0201984D03*
X0198835Y0201984D03*
X0197260Y0201984D03*
X0201984Y0201984D03*
X0201984Y0200409D03*
X0201984Y0198835D03*
X0203559Y0198835D03*
X0203559Y0200409D03*
X0203559Y0201984D03*
X0203559Y0203559D03*
X0201984Y0203559D03*
X0201984Y0197260D03*
X0201984Y0195685D03*
X0201984Y0194110D03*
X0201984Y0192535D03*
X0203559Y0192535D03*
X0203559Y0194110D03*
X0203559Y0195685D03*
X0203559Y0197260D03*
M02*
