0
SECTION
2
HEADER
9
$INSUNITS
70
4
9
$ACADVER
1
AC1014
9
$HANDSEED
5
FFFF
0
ENDSEC
0
SECTION
2
TABLES
0
TABLE
2
VPORT
5
8
100
AcDbSymbolTable
0
ENDTAB
0
TABLE
2
LTYPE
5
5
100
AcDbSymbolTable
0
LTYPE
5
14
100
AcDbSymbolTableRecord
100
AcDbLinetypeTableRecord
2
BYBLOCK
70
0
0
LTYPE
5
15
100
AcDbSymbolTableRecord
100
AcDbLinetypeTableRecord
2
BYLAYER
70
0
0
ENDTAB
0
TABLE
2
LAYER
5
2
100
AcDbSymbolTable
70
2
0
LAYER
5
50
100
AcDbSymbolTableRecord
100
AcDbLayerTableRecord
2
0
70
0
6
CONTINUOUS
0
ENDTAB
0
TABLE
2
STYLE
5
3
100
AcDbSymbolTable
70
1
0
STYLE
5
11
100
AcDbSymbolTableRecord
100
AcDbTextStyleTableRecord
2
STANDARD
70
0
0
ENDTAB
0
TABLE
2
VIEW
5
6
100
AcDbSymbolTable
70
0
0
ENDTAB
0
TABLE
2
UCS
5
7
100
AcDbSymbolTable
70
0
0
ENDTAB
0
TABLE
2
APPID
5
9
100
AcDbSymbolTable
70
2
0
APPID
5
12
100
AcDbSymbolTableRecord
100
AcDbRegAppTableRecord
2
ACAD
70
0
0
ENDTAB
0
TABLE
2
DIMSTYLE
5
A
100
AcDbSymbolTable
70
1
0
ENDTAB
0
TABLE
2
BLOCK_RECORD
5
1
100
AcDbSymbolTable
70
1
0
BLOCK_RECORD
5
1F
100
AcDbSymbolTableRecord
100
AcDbBlockTableRecord
2
*MODEL_SPACE
0
BLOCK_RECORD
5
1B
100
AcDbSymbolTableRecord
100
AcDbBlockTableRecord
2
*PAPER_SPACE
0
ENDTAB
0
ENDSEC
0
SECTION
2
BLOCKS
0
BLOCK
5
20
100
AcDbEntity
100
AcDbBlockBegin
2
*MODEL_SPACE
0
ENDBLK
5
21
100
AcDbEntity
100
AcDbBlockEnd
0
BLOCK
5
1C
100
AcDbEntity
100
AcDbBlockBegin
2
*PAPER_SPACE
0
ENDBLK
5
1D
100
AcDbEntity
100
AcDbBlockEnd
0
ENDSEC
0
SECTION
2
ENTITIES
0
CIRCLE
5
100
100
AcDbEntity
8
0
100
AcDbCircle
10
-112.5
20
-2.4980018054066022e-14
30
0
40
1.9999999999999929
210
0
220
0
230
1
0
CIRCLE
5
101
100
AcDbEntity
8
0
100
AcDbCircle
10
-92.5
20
112.5
30
0
40
1.5000000000000036
210
0
220
0
230
1
0
CIRCLE
5
102
100
AcDbEntity
8
0
100
AcDbCircle
10
112.5
20
92.5
30
0
40
1.5000000000000036
210
0
220
0
230
1
0
CIRCLE
5
103
100
AcDbEntity
8
0
100
AcDbCircle
10
92.5
20
112.5
30
0
40
1.5000000000000036
210
0
220
0
230
1
0
CIRCLE
5
104
100
AcDbEntity
8
0
100
AcDbCircle
10
-112.50000000000001
20
-92.499999999999986
30
0
40
1.5000000000000036
210
0
220
0
230
1
0
CIRCLE
5
105
100
AcDbEntity
8
0
100
AcDbCircle
10
-92.499999999999986
20
-112.50000000000001
30
0
40
1.5000000000000036
210
0
220
0
230
1
0
CIRCLE
5
106
100
AcDbEntity
8
0
100
AcDbCircle
10
-112.49999999999999
20
-112.50000000000001
30
0
40
1.9999999999999929
210
0
220
0
230
1
0
CIRCLE
5
107
100
AcDbEntity
8
0
100
AcDbCircle
10
-112.50000000000001
20
112.49999999999999
30
0
40
1.9999999999999929
210
0
220
0
230
1
0
CIRCLE
5
108
100
AcDbEntity
8
0
100
AcDbCircle
10
112.50000000000001
20
-112.49999999999999
30
0
40
1.9999999999999929
210
0
220
0
230
1
0
CIRCLE
5
109
100
AcDbEntity
8
0
100
AcDbCircle
10
112.50000000000001
20
-92.499999999999986
30
0
40
1.5000000000000036
210
0
220
0
230
1
0
CIRCLE
5
110
100
AcDbEntity
8
0
100
AcDbCircle
10
92.499999999999986
20
-112.50000000000001
30
0
40
1.5000000000000036
210
0
220
0
230
1
0
CIRCLE
5
111
100
AcDbEntity
8
0
100
AcDbCircle
10
-112.5
20
92.5
30
0
40
1.5000000000000036
210
0
220
0
230
1
0
LWPOLYLINE
5
112
100
AcDbEntity
8
0
100
AcDbPolyline
90
8
70
1
43
0.0
10
99.999999999999986
20
-74.999999999999972
42
-0.41421356237309537
10
74.999999999999972
20
-99.999999999999986
10
-74.999999999999986
20
-99.999999999999986
42
-0.41421356237309515
10
-99.999999999999986
20
-74.999999999999972
10
-100
20
75.000000000000014
42
-0.4142135623730942
10
-74.999999999999972
20
100
10
75
20
100
42
-0.41421356237309509
10
100
20
74.999999999999986
0
CIRCLE
5
113
100
AcDbEntity
8
0
100
AcDbCircle
10
112.5
20
112.5
30
0
40
1.9999999999999929
210
0
220
0
230
1
0
CIRCLE
5
114
100
AcDbEntity
8
0
100
AcDbCircle
10
112.5
20
2.4980018054066022e-14
30
0
40
1.9999999999999929
210
0
220
0
230
1
0
CIRCLE
5
115
100
AcDbEntity
8
0
100
AcDbCircle
10
0
20
112.5
30
0
40
1.9999999999999969
210
0
220
0
230
1
0
CIRCLE
5
116
100
AcDbEntity
8
0
100
AcDbCircle
10
1.3777276490407723e-14
20
-112.5
30
0
40
1.9999999999999969
210
0
220
0
230
1
0
LWPOLYLINE
5
117
100
AcDbEntity
8
0
100
AcDbPolyline
90
8
70
1
43
0.0
10
124.99999999999999
20
-119.99999999999999
42
-0.41421356237309298
10
119.99999999999999
20
-124.99999999999999
10
-119.99999999999999
20
-124.99999999999999
42
-0.41421356237309298
10
-124.99999999999999
20
-119.99999999999999
10
-124.99999999999999
20
119.99999999999999
42
-0.41421356237309298
10
-119.99999999999999
20
124.99999999999999
10
119.99999999999999
20
124.99999999999999
42
-0.41421356237309298
10
124.99999999999999
20
119.99999999999999
0
LWPOLYLINE
5
118
100
AcDbEntity
8
0
100
AcDbPolyline
90
8
70
1
43
0.0
10
-57.507896213451495
20
80.290734561763628
42
-0.41421356237309109
10
-59.507896213451502
20
78.290734561763628
10
-85.507896213451488
20
78.290734561763628
42
-0.4142135623730977
10
-87.507896213451488
20
80.290734561763642
10
-87.507896213451488
20
91.290734561763628
42
-0.41421356237310281
10
-85.507896213451488
20
93.290734561763628
10
-59.507896213451488
20
93.290734561763628
42
-0.41421356237309243
10
-57.507896213451495
20
91.290734561763628
0
CIRCLE
5
119
100
AcDbEntity
8
0
100
AcDbCircle
10
72.507896213451502
20
85.790734561763628
30
0
40
1.5000000000000036
210
0
220
0
230
-1
0
CIRCLE
5
120
100
AcDbEntity
8
0
100
AcDbCircle
10
82.507896213451502
20
85.790734561763628
30
0
40
1.9999999999999929
210
0
220
0
230
-1
0
CIRCLE
5
121
100
AcDbEntity
8
0
100
AcDbCircle
10
62.507896213451488
20
85.790734561763628
30
0
40
2.0000000000000018
210
0
220
0
230
-1
0
LWPOLYLINE
5
122
100
AcDbEntity
8
0
100
AcDbPolyline
90
8
70
1
43
0.0
10
-57.507896213451495
20
50.290734561763628
42
-0.41421356237309109
10
-59.507896213451502
20
48.290734561763635
10
-85.507896213451488
20
48.290734561763635
42
-0.4142135623730977
10
-87.507896213451488
20
50.290734561763642
10
-87.507896213451488
20
61.290734561763628
42
-0.41421356237310281
10
-85.507896213451488
20
63.290734561763635
10
-59.507896213451488
20
63.290734561763628
42
-0.41421356237309243
10
-57.507896213451502
20
61.290734561763628
0
CIRCLE
5
123
100
AcDbEntity
8
0
100
AcDbCircle
10
72.507896213451502
20
55.790734561763635
30
0
40
1.5000000000000036
210
0
220
0
230
-1
0
CIRCLE
5
124
100
AcDbEntity
8
0
100
AcDbCircle
10
82.507896213451502
20
55.790734561763635
30
0
40
1.9999999999999929
210
0
220
0
230
-1
0
CIRCLE
5
125
100
AcDbEntity
8
0
100
AcDbCircle
10
62.507896213451488
20
55.790734561763635
30
0
40
2.0000000000000018
210
0
220
0
230
-1
0
LWPOLYLINE
5
126
100
AcDbEntity
8
0
100
AcDbPolyline
90
8
70
1
43
0.0
10
-57.507896213451495
20
20.290734561763628
42
-0.41421356237309109
10
-59.507896213451502
20
18.290734561763635
10
-85.507896213451488
20
18.290734561763635
42
-0.4142135623730977
10
-87.507896213451488
20
20.290734561763646
10
-87.507896213451488
20
31.290734561763625
42
-0.41421356237310281
10
-85.507896213451488
20
33.290734561763635
10
-59.507896213451488
20
33.290734561763628
42
-0.41421356237309243
10
-57.507896213451502
20
31.290734561763625
0
CIRCLE
5
127
100
AcDbEntity
8
0
100
AcDbCircle
10
82.507896213451502
20
25.790734561763635
30
0
40
1.9999999999999929
210
0
220
0
230
-1
0
CIRCLE
5
128
100
AcDbEntity
8
0
100
AcDbCircle
10
62.507896213451488
20
25.790734561763635
30
0
40
2.0000000000000018
210
0
220
0
230
-1
0
CIRCLE
5
129
100
AcDbEntity
8
0
100
AcDbCircle
10
72.507896213451502
20
25.790734561763635
30
0
40
1.5000000000000036
210
0
220
0
230
-1
0
LWPOLYLINE
5
130
100
AcDbEntity
8
0
100
AcDbPolyline
90
8
70
1
43
0.0
10
-57.507896213451495
20
-9.7092654382363719
42
-0.41421356237309109
10
-59.507896213451502
20
-11.709265438236365
10
-85.507896213451488
20
-11.709265438236365
42
-0.4142135623730977
10
-87.507896213451488
20
-9.7092654382363541
10
-87.507896213451488
20
1.2907345617636246
42
-0.41421356237310281
10
-85.507896213451488
20
3.2907345617636352
10
-59.507896213451488
20
3.2907345617636263
42
-0.41421356237309243
10
-57.507896213451502
20
1.2907345617636246
0
CIRCLE
5
131
100
AcDbEntity
8
0
100
AcDbCircle
10
62.507896213451488
20
-4.2092654382363648
30
0
40
2.0000000000000018
210
0
220
0
230
-1
0
CIRCLE
5
132
100
AcDbEntity
8
0
100
AcDbCircle
10
82.507896213451502
20
-4.2092654382363648
30
0
40
1.9999999999999929
210
0
220
0
230
-1
0
CIRCLE
5
133
100
AcDbEntity
8
0
100
AcDbCircle
10
72.507896213451502
20
-4.2092654382363648
30
0
40
1.5000000000000036
210
0
220
0
230
-1
0
LWPOLYLINE
5
134
100
AcDbEntity
8
0
100
AcDbPolyline
90
8
70
1
43
0.0
10
-57.507896213451495
20
-39.709265438236372
42
-0.41421356237309109
10
-59.507896213451502
20
-41.709265438236365
10
-85.507896213451488
20
-41.709265438236365
42
-0.4142135623730977
10
-87.507896213451488
20
-39.709265438236358
10
-87.507896213451488
20
-28.709265438236375
42
-0.41421356237310281
10
-85.507896213451488
20
-26.709265438236365
10
-59.507896213451488
20
-26.709265438236372
42
-0.41421356237309243
10
-57.507896213451502
20
-28.709265438236375
0
CIRCLE
5
135
100
AcDbEntity
8
0
100
AcDbCircle
10
62.507896213451488
20
-34.209265438236365
30
0
40
2.0000000000000018
210
0
220
0
230
-1
0
CIRCLE
5
136
100
AcDbEntity
8
0
100
AcDbCircle
10
72.507896213451502
20
-34.209265438236365
30
0
40
1.5000000000000036
210
0
220
0
230
-1
0
CIRCLE
5
137
100
AcDbEntity
8
0
100
AcDbCircle
10
82.507896213451502
20
-34.209265438236365
30
0
40
1.9999999999999929
210
0
220
0
230
-1
0
LWPOLYLINE
5
138
100
AcDbEntity
8
0
100
AcDbPolyline
90
8
70
1
43
0.0
10
-57.507896213451495
20
-69.709265438236372
42
-0.41421356237309109
10
-59.507896213451502
20
-71.709265438236372
10
-85.507896213451488
20
-71.709265438236372
42
-0.4142135623730977
10
-87.507896213451488
20
-69.709265438236358
10
-87.507896213451488
20
-58.709265438236372
42
-0.41421356237310281
10
-85.507896213451488
20
-56.709265438236365
10
-59.507896213451488
20
-56.709265438236372
42
-0.41421356237309243
10
-57.507896213451502
20
-58.709265438236372
0
CIRCLE
5
139
100
AcDbEntity
8
0
100
AcDbCircle
10
82.507896213451502
20
-64.209265438236372
30
0
40
1.9999999999999929
210
0
220
0
230
-1
0
CIRCLE
5
140
100
AcDbEntity
8
0
100
AcDbCircle
10
62.507896213451488
20
-64.209265438236372
30
0
40
2.0000000000000018
210
0
220
0
230
-1
0
CIRCLE
5
141
100
AcDbEntity
8
0
100
AcDbCircle
10
72.507896213451502
20
-64.209265438236372
30
0
40
1.5000000000000036
210
0
220
0
230
-1
0
LWPOLYLINE
5
142
100
AcDbEntity
8
0
100
AcDbPolyline
90
8
70
1
43
0.0
10
-43.433853987095148
20
-71.821761461566339
42
-0.4142135623730937
10
-45.433853987095148
20
-69.821761461566325
10
-45.433853987095134
20
-58.821761461566311
42
-0.41421356237309109
10
-43.433853987095148
20
-56.821761461566339
10
42.566146012903978
20
-56.821761461566368
42
-0.41421356237309509
10
44.566146012903957
20
-58.821761461566346
10
44.566146012903964
20
-69.821761461566339
42
-0.41421356237309509
10
42.566146012903978
20
-71.821761461566325
0
CIRCLE
5
143
100
AcDbEntity
8
0
100
AcDbCircle
10
-19.566146012904213
20
-64.321761461566339
30
0
40
1.9999999999999996
210
0
220
0
230
-1
0
CIRCLE
5
144
100
AcDbEntity
8
0
100
AcDbCircle
10
-39.566146012904014
20
-64.321761461566339
30
0
40
2.0000000000000018
210
0
220
0
230
-1
0
LWPOLYLINE
5
145
100
AcDbEntity
8
0
100
AcDbPolyline
90
8
70
1
43
0.0
10
-38.433853987095191
20
-66.821761461566339
10
7.5661460129043334
20
-66.821761461566339
42
0.4142135623731012
10
9.5661460129043157
20
-64.821761461566325
10
9.5661460129043245
20
-63.821761461566325
42
0.41421356237310253
10
7.5661460129043334
20
-61.821761461566318
10
-38.433853987095205
20
-61.821761461566311
42
0.41421356237310675
10
-40.433853987095176
20
-63.821761461566311
10
-40.433853987095183
20
-64.821761461566325
42
0.41421356237310802
0
LWPOLYLINE
5
146
100
AcDbEntity
8
0
100
AcDbPolyline
90
8
70
1
43
0.0
10
-43.433853987095148
20
-41.821761461566339
42
-0.4142135623730937
10
-45.433853987095148
20
-39.821761461566325
10
-45.433853987095134
20
-28.821761461566311
42
-0.41421356237309109
10
-43.433853987095148
20
-26.821761461566336
10
42.566146012903978
20
-26.821761461566371
42
-0.41421356237309509
10
44.566146012903957
20
-28.821761461566346
10
44.566146012903964
20
-39.821761461566339
42
-0.41421356237309509
10
42.566146012903978
20
-41.821761461566325
0
CIRCLE
5
147
100
AcDbEntity
8
0
100
AcDbCircle
10
-39.566146012904014
20
-34.321761461566339
30
0
40
2.0000000000000018
210
0
220
0
230
-1
0
LWPOLYLINE
5
148
100
AcDbEntity
8
0
100
AcDbPolyline
90
8
70
1
43
0.0
10
-38.433853987095191
20
-36.821761461566339
10
7.5661460129043334
20
-36.821761461566339
42
0.4142135623731012
10
9.5661460129043157
20
-34.821761461566325
10
9.5661460129043245
20
-33.821761461566325
42
0.41421356237310253
10
7.5661460129043334
20
-31.821761461566318
10
-38.433853987095205
20
-31.821761461566311
42
0.41421356237310675
10
-40.433853987095176
20
-33.821761461566311
10
-40.433853987095183
20
-34.821761461566325
42
0.41421356237310802
0
CIRCLE
5
149
100
AcDbEntity
8
0
100
AcDbCircle
10
-19.566146012904213
20
-34.321761461566339
30
0
40
1.9999999999999996
210
0
220
0
230
-1
0
LWPOLYLINE
5
150
100
AcDbEntity
8
0
100
AcDbPolyline
90
8
70
1
43
0.0
10
-43.433853987095148
20
-11.821761461566336
42
-0.4142135623730937
10
-45.433853987095148
20
-9.8217614615663251
10
-45.433853987095134
20
1.1782385384336889
42
-0.41421356237309109
10
-43.433853987095148
20
3.1782385384336642
10
42.566146012903978
20
3.1782385384336287
42
-0.41421356237309509
10
44.566146012903957
20
1.1782385384336536
10
44.566146012903964
20
-9.8217614615663429
42
-0.41421356237309509
10
42.566146012903978
20
-11.821761461566327
0
CIRCLE
5
151
100
AcDbEntity
8
0
100
AcDbCircle
10
-19.566146012904213
20
-4.3217614615663358
30
0
40
1.9999999999999996
210
0
220
0
230
-1
0
CIRCLE
5
152
100
AcDbEntity
8
0
100
AcDbCircle
10
-39.566146012904014
20
-4.3217614615663358
30
0
40
2.0000000000000018
210
0
220
0
230
-1
0
LWPOLYLINE
5
153
100
AcDbEntity
8
0
100
AcDbPolyline
90
8
70
1
43
0.0
10
-38.433853987095191
20
-6.8217614615663358
10
7.5661460129043334
20
-6.8217614615663358
42
0.4142135623731012
10
9.5661460129043157
20
-4.8217614615663251
10
9.5661460129043245
20
-3.8217614615663287
42
0.41421356237310253
10
7.5661460129043334
20
-1.821761461566318
10
-38.433853987095205
20
-1.8217614615663091
42
0.41421356237310675
10
-40.433853987095176
20
-3.8217614615663109
10
-40.433853987095183
20
-4.8217614615663251
42
0.41421356237310802
0
LWPOLYLINE
5
154
100
AcDbEntity
8
0
100
AcDbPolyline
90
8
70
1
43
0.0
10
-43.433853987095148
20
18.178238538433664
42
-0.4142135623730937
10
-45.433853987095148
20
20.178238538433675
10
-45.433853987095134
20
31.178238538433689
42
-0.41421356237309109
10
-43.433853987095148
20
33.178238538433661
10
42.566146012903978
20
33.178238538433632
42
-0.41421356237309509
10
44.566146012903957
20
31.178238538433654
10
44.566146012903964
20
20.178238538433657
42
-0.41421356237309509
10
42.566146012903978
20
18.178238538433675
0
CIRCLE
5
155
100
AcDbEntity
8
0
100
AcDbCircle
10
-19.566146012904213
20
25.678238538433664
30
0
40
1.9999999999999996
210
0
220
0
230
-1
0
CIRCLE
5
156
100
AcDbEntity
8
0
100
AcDbCircle
10
-39.566146012904014
20
25.678238538433664
30
0
40
2.0000000000000018
210
0
220
0
230
-1
0
LWPOLYLINE
5
157
100
AcDbEntity
8
0
100
AcDbPolyline
90
8
70
1
43
0.0
10
-38.433853987095191
20
23.178238538433664
10
7.5661460129043334
20
23.178238538433664
42
0.4142135623731012
10
9.5661460129043157
20
25.178238538433675
10
9.5661460129043245
20
26.178238538433671
42
0.41421356237310253
10
7.5661460129043334
20
28.178238538433682
10
-38.433853987095205
20
28.178238538433689
42
0.41421356237310675
10
-40.433853987095176
20
26.178238538433689
10
-40.433853987095183
20
25.178238538433675
42
0.41421356237310802
0
LWPOLYLINE
5
158
100
AcDbEntity
8
0
100
AcDbPolyline
90
8
70
1
43
0.0
10
-43.433853987095148
20
48.178238538433661
42
-0.4142135623730937
10
-45.433853987095148
20
50.178238538433675
10
-45.433853987095134
20
61.178238538433689
42
-0.41421356237309109
10
-43.433853987095148
20
63.178238538433661
10
42.566146012903978
20
63.178238538433632
42
-0.41421356237309509
10
44.566146012903957
20
61.178238538433654
10
44.566146012903964
20
50.178238538433661
42
-0.41421356237309509
10
42.566146012903978
20
48.178238538433675
0
CIRCLE
5
159
100
AcDbEntity
8
0
100
AcDbCircle
10
-19.566146012904213
20
55.678238538433661
30
0
40
1.9999999999999996
210
0
220
0
230
-1
0
CIRCLE
5
160
100
AcDbEntity
8
0
100
AcDbCircle
10
-39.566146012904014
20
55.678238538433661
30
0
40
2.0000000000000018
210
0
220
0
230
-1
0
LWPOLYLINE
5
161
100
AcDbEntity
8
0
100
AcDbPolyline
90
8
70
1
43
0.0
10
-38.433853987095191
20
53.178238538433661
10
7.5661460129043334
20
53.178238538433661
42
0.4142135623731012
10
9.5661460129043157
20
55.178238538433675
10
9.5661460129043245
20
56.178238538433675
42
0.41421356237310253
10
7.5661460129043334
20
58.178238538433682
10
-38.433853987095205
20
58.178238538433689
42
0.41421356237310675
10
-40.433853987095176
20
56.178238538433689
10
-40.433853987095183
20
55.178238538433675
42
0.41421356237310802
0
LWPOLYLINE
5
162
100
AcDbEntity
8
0
100
AcDbPolyline
90
8
70
1
43
0.0
10
42.566146012903978
20
93.178238538433661
42
-0.41421356237309509
10
44.566146012903985
20
91.178238538433646
10
44.566146012903964
20
80.178238538433661
42
-0.41421356237309509
10
42.566146012903978
20
78.178238538433675
10
-43.433853987095148
20
78.178238538433675
42
-0.4142135623730937
10
-45.433853987095134
20
80.178238538433675
10
-45.433853987095134
20
91.178238538433689
42
-0.41421356237309109
10
-43.433853987095148
20
93.178238538433661
0
CIRCLE
5
163
100
AcDbEntity
8
0
100
AcDbCircle
10
-39.566146012904014
20
85.678238538433661
30
0
40
2.0000000000000018
210
0
220
0
230
-1
0
CIRCLE
5
164
100
AcDbEntity
8
0
100
AcDbCircle
10
-19.566146012904213
20
85.678238538433661
30
0
40
1.9999999999999996
210
0
220
0
230
-1
0
LWPOLYLINE
5
165
100
AcDbEntity
8
0
100
AcDbPolyline
90
8
70
1
43
0.0
10
-40.433853987095176
20
86.178238538433689
10
-40.433853987095183
20
85.178238538433675
42
0.41421356237310802
10
-38.433853987095191
20
83.178238538433661
10
7.5661460129043334
20
83.178238538433661
42
0.4142135623731012
10
9.5661460129043157
20
85.178238538433675
10
9.5661460129043245
20
86.178238538433675
42
0.41421356237310253
10
7.5661460129043334
20
88.178238538433675
10
-38.433853987095205
20
88.178238538433675
42
0.41421356237310675
0
LWPOLYLINE
5
166
100
AcDbEntity
8
0
100
AcDbPolyline
90
8
70
1
43
0.0
10
82.262906387996139
20
79.821730518114251
42
-0.41421356237309509
10
80.262906387996139
20
77.821730518114236
10
54.262906387996139
20
77.821730518114251
42
-0.41421356237309892
10
52.262906387996139
20
79.821730518114265
10
52.262906387996125
20
90.821730518114251
42
-0.41421356237308982
10
54.262906387996139
20
92.821730518114265
10
80.262906387996139
20
92.821730518114265
42
-0.41421356237308726
10
82.262906387996139
20
90.821730518114236
0
CIRCLE
5
167
100
AcDbEntity
8
0
100
AcDbCircle
10
-77.262906387996139
20
85.321730518114251
30
0
40
2.0000000000000018
210
0
220
0
230
-1
0
CIRCLE
5
168
100
AcDbEntity
8
0
100
AcDbCircle
10
-57.262906387996139
20
85.321730518114251
30
0
40
2.0000000000000018
210
0
220
0
230
-1
0
LWPOLYLINE
5
169
100
AcDbEntity
8
0
100
AcDbPolyline
90
8
70
1
43
0.0
10
82.262906387996139
20
49.821730518114251
42
-0.41421356237309509
10
80.262906387996139
20
47.821730518114236
10
54.262906387996139
20
47.821730518114251
42
-0.41421356237309892
10
52.262906387996139
20
49.821730518114258
10
52.262906387996146
20
60.821730518114251
42
-0.41421356237308982
10
54.262906387996139
20
62.821730518114251
10
80.262906387996139
20
62.821730518114265
42
-0.41421356237308726
10
82.262906387996139
20
60.821730518114236
0
CIRCLE
5
170
100
AcDbEntity
8
0
100
AcDbCircle
10
-77.262906387996139
20
55.321730518114251
30
0
40
2.0000000000000018
210
0
220
0
230
-1
0
CIRCLE
5
171
100
AcDbEntity
8
0
100
AcDbCircle
10
-57.262906387996139
20
55.321730518114251
30
0
40
2.0000000000000018
210
0
220
0
230
-1
0
LWPOLYLINE
5
172
100
AcDbEntity
8
0
100
AcDbPolyline
90
8
70
1
43
0.0
10
82.262906387996139
20
19.821730518114251
42
-0.41421356237309509
10
80.262906387996139
20
17.821730518114236
10
54.262906387996139
20
17.821730518114247
42
-0.41421356237309892
10
52.262906387996139
20
19.821730518114258
10
52.262906387996146
20
30.821730518114254
42
-0.41421356237308982
10
54.262906387996139
20
32.821730518114251
10
80.262906387996139
20
32.821730518114265
42
-0.41421356237308726
10
82.262906387996139
20
30.821730518114236
0
CIRCLE
5
173
100
AcDbEntity
8
0
100
AcDbCircle
10
-77.262906387996139
20
25.321730518114247
30
0
40
2.0000000000000018
210
0
220
0
230
-1
0
CIRCLE
5
174
100
AcDbEntity
8
0
100
AcDbCircle
10
-57.262906387996139
20
25.321730518114247
30
0
40
2.0000000000000018
210
0
220
0
230
-1
0
LWPOLYLINE
5
175
100
AcDbEntity
8
0
100
AcDbPolyline
90
8
70
1
43
0.0
10
82.262906387996139
20
-10.178269481885751
42
-0.41421356237309509
10
80.262906387996139
20
-12.178269481885762
10
54.262906387996139
20
-12.178269481885753
42
-0.41421356237309892
10
52.262906387996139
20
-10.178269481885742
10
52.262906387996146
20
0.82173051811425413
42
-0.41421356237308982
10
54.262906387996139
20
2.8217305181142471
10
80.262906387996139
20
2.8217305181142649
42
-0.41421356237308726
10
82.262906387996139
20
0.82173051811423647
0
CIRCLE
5
176
100
AcDbEntity
8
0
100
AcDbCircle
10
-57.262906387996139
20
-4.6782694818857529
30
0
40
2.0000000000000018
210
0
220
0
230
-1
0
CIRCLE
5
177
100
AcDbEntity
8
0
100
AcDbCircle
10
-77.262906387996139
20
-4.6782694818857529
30
0
40
2.0000000000000018
210
0
220
0
230
-1
0
LWPOLYLINE
5
178
100
AcDbEntity
8
0
100
AcDbPolyline
90
8
70
1
43
0.0
10
82.262906387996139
20
-40.178269481885749
42
-0.41421356237309509
10
80.262906387996139
20
-42.178269481885764
10
54.262906387996139
20
-42.178269481885749
42
-0.41421356237309892
10
52.262906387996139
20
-40.178269481885742
10
52.262906387996146
20
-29.178269481885746
42
-0.41421356237308982
10
54.262906387996139
20
-27.178269481885753
10
80.262906387996139
20
-27.178269481885735
42
-0.41421356237308726
10
82.262906387996139
20
-29.178269481885764
0
CIRCLE
5
179
100
AcDbEntity
8
0
100
AcDbCircle
10
-77.262906387996139
20
-34.678269481885749
30
0
40
2.0000000000000018
210
0
220
0
230
-1
0
CIRCLE
5
180
100
AcDbEntity
8
0
100
AcDbCircle
10
-57.262906387996139
20
-34.678269481885749
30
0
40
2.0000000000000018
210
0
220
0
230
-1
0
LWPOLYLINE
5
181
100
AcDbEntity
8
0
100
AcDbPolyline
90
8
70
1
43
0.0
10
82.262906387996139
20
-70.178269481885749
42
-0.41421356237309509
10
80.262906387996139
20
-72.178269481885764
10
54.262906387996139
20
-72.178269481885749
42
-0.41421356237309892
10
52.262906387996139
20
-70.178269481885735
10
52.262906387996146
20
-59.178269481885749
42
-0.41421356237308982
10
54.262906387996139
20
-57.178269481885749
10
80.262906387996139
20
-57.178269481885735
42
-0.41421356237308726
10
82.262906387996139
20
-59.178269481885764
0
CIRCLE
5
182
100
AcDbEntity
8
0
100
AcDbCircle
10
-77.262906387996139
20
-64.678269481885749
30
0
40
2.0000000000000018
210
0
220
0
230
-1
0
CIRCLE
5
183
100
AcDbEntity
8
0
100
AcDbCircle
10
-57.262906387996139
20
-64.678269481885749
30
0
40
2.0000000000000018
210
0
220
0
230
-1
0
ENDSEC
0
SECTION
2
OBJECTS
0
DICTIONARY
5
C
100
AcDbDictionary
3
ACAD_GROUP
350
D
3
ACAD_MLINESTYLE
350
17
0
DICTIONARY
5
D
100
AcDbDictionary
0
DICTIONARY
5
1A
330
C
100
AcDbDictionary
0
DICTIONARY
5
17
100
AcDbDictionary
0
ENDSEC
0
EOF
